Produced and directed for German television, Ingmar Bergman's From the Life of the Marionettes starts out in color and switches almost immediately to black-and-white. This cinematic self-indulgence is ideally suited to the subject matter: the horrible consequences of a rapidly disintegrating marriage. The husband, Peter Egerman (Robert Atzorn) is unable to articulate his frustration through normal channels. Warped by his repression, Egerman ends up raping and murdering a prostitute. This outrage occurs at the very beginning of the film; the rest of the footage is devoted to a semi-documentary study of the failed marriage, the police investigation, and the husband's twisted psyche. Once again, Bergman's vision is superbly realized by the camerawork of Sven Nykvist. 

   General
      Complete name : Aus dem Leben der Marionetten.avi
      Format : AVI
      Format/Info : Audio Video Interleave
      File size : 1.24 GiB
      Duration : 1h 39mn
      Overall bit rate : 1 780 Kbps
      Writing application : VirtualDubMod 1.5.10.2 (build 2540/release)
      Writing library : VirtualDubMod build 2540/release
   Video #0
      ID : 0
      Format : MPEG-4 Visual
      Format settings, BVOP : Yes
      Format settings, QPel : No
      Format settings, GMC : No warppoints
      Format settings, Matrix : Default (H.263)
      Muxing mode : Packed bitstream
      Codec ID : DX50
      Codec ID/Hint : DivX 5
      Duration : 1h 39mn
      Bit rate : 1 578 Kbps
      Width : 640 pixels
      Height : 464 pixels
      Display aspect ratio : 1.379
      Frame rate : 25.000 fps
      Resolution : 24 bits
      Colorimetry : 4:2:0
      Scan type : Progressive
      Bits/(Pixel*Frame) : 0.213
      Stream size : 1.10 GiB (89%)
      Writing library : DivX 5.1.1 (Maupiti) (UTC 2003-11-19)
   Audio #1
      ID : 1
      Format : AC-3
      Format/Info : Audio Coding 3
      Codec ID : 2000
      Duration : 1h 39mn
      Bit rate mode : Constant
      Bit rate : 192 Kbps
      Channel(s) : 3 channels
      Channel positions : L R, LFE
      Sampling rate : 48.0 KHz
      Stream size : 137 MiB (11%)
      Alignment : Split accross interleaves
      Interleave, duration : 40 ms (1.00 video frame)
      Interleave, preload duration : 500 ms

IMDB: tt0080397

German audio; English, French, Italian, Spanish and Portuguese subtitles

Bergman - Aus dem Leben der Marionetten [1980]